# xmcd CD database file
#
# Track frame offsets:
#	150
#	11791
#	27378
#	39485
#	50252
#	62415
#	77903
#	88514
#	99190
#	110060
#	119778
#	133196
#
# Disc length: 1972 seconds
#
# Revision: 4
# Processed by: cddbd v1.5.1PL2 Copyright (c) Steve Scherf et al.
# Submitted via: CDex 1.70beta2
#
DISCID=9e07b20c
DTITLE=Various Artist - The Sound of Country Disc 2
DYEAR=2002
DGENRE=Country
TTITLE0=Rusty and Doug Kershaw - Louisiana Man
TTITLE1=Whitey Shaffer - Does Fort Worth Ever Cross Your Mind
TTITLE2=Merle Haggard - Okie From Muskogee
TTITLE3=Eddy Raven - I Got Mexico
TTITLE4=Lorrie Morgan - The First Few Days of Love
TTITLE5=Don Gibson - Sweet Dreams
TTITLE6=Redd Stewart - Tennessee Waltz
TTITLE7=Patsy Cline - Honky Tonk Merry Go Round
TTITLE8=Roy Acuff - Night Train To Memphis
TTITLE9=Kris Jensen - Torture
TTITLE10=The Kendalls - Thank God For The Radio
TTITLE11=Lee Greenwood - God Bless The USA
EXTD=YEAR: 2002
EXTT0=
EXTT1=
EXTT2=
EXTT3=
EXTT4=
EXTT5=
EXTT6=
EXTT7=
EXTT8=
EXTT9=
EXTT10=
EXTT11=
PLAYORDER=
